<svg xmlns="http://www.w3.org/2000/svg" xmlns:xlink="http://www.w3.org/1999/xlink" width="1080" zoomAndPan="magnify" viewBox="0 0 810 809.999993" height="1080" preserveAspectRatio="xMidYMid meet" version="1.0"><defs><clipPath id="e56918f031"><path d="M 320 545 L 330 545 L 330 558.335938 L 320 558.335938 Z M 320 545 " clip-rule="nonzero"/></clipPath><clipPath id="e94d57778f"><path d="M 335 546 L 349 546 L 349 558.335938 L 335 558.335938 Z M 335 546 " clip-rule="nonzero"/></clipPath><clipPath id="4e2b150ba9"><path d="M 355 546 L 364 546 L 364 558.335938 L 355 558.335938 Z M 355 546 " clip-rule="nonzero"/></clipPath><clipPath id="fafd9f0139"><path d="M 369 545 L 383 545 L 383 558.335938 L 369 558.335938 Z M 369 545 " clip-rule="nonzero"/></clipPath><clipPath id="86beab66d9"><path d="M 390 546 L 401 546 L 401 558.335938 L 390 558.335938 Z M 390 546 " clip-rule="nonzero"/></clipPath><clipPath id="49e6f6f4b4"><path d="M 418 546 L 429 546 L 429 558.335938 L 418 558.335938 Z M 418 546 " clip-rule="nonzero"/></clipPath><clipPath id="974a74c6b3"><path d="M 444 545 L 454 545 L 454 558.335938 L 444 558.335938 Z M 444 545 " clip-rule="nonzero"/></clipPath><clipPath id="f831de80d5"><path d="M 461 546 L 472 546 L 472 558.335938 L 461 558.335938 Z M 461 546 " clip-rule="nonzero"/></clipPath><clipPath id="6d5457d9cd"><path d="M 476 546 L 490 546 L 490 558.335938 L 476 558.335938 Z M 476 546 " clip-rule="nonzero"/></clipPath><clipPath id="bac22b32ab"><path d="M 272.558594 504 L 298 504 L 298 535 L 272.558594 535 Z M 272.558594 504 " clip-rule="nonzero"/></clipPath><clipPath id="1eb82b8bd1"><path d="M 518 504 L 537.308594 504 L 537.308594 535 L 518 535 Z M 518 504 " clip-rule="nonzero"/></clipPath><clipPath id="386e40375a"><path d="M 351 251.585938 L 459 251.585938 L 459 487 L 351 487 Z M 351 251.585938 " clip-rule="nonzero"/></clipPath></defs><g clip-path="url(#e56918f031)"><path fill="#000000" d="M 320.757812 556.742188 L 321.257812 555.753906 C 322.402344 556.75 323.734375 557.242188 325.253906 557.226562 C 327.527344 557.226562 328.515625 556.273438 328.515625 555.074219 C 328.515625 551.742188 321.035156 553.792969 321.035156 549.296875 C 321.035156 547.507812 322.421875 545.964844 325.515625 545.964844 C 326.875 545.949219 328.132812 546.304688 329.28125 547.039062 L 328.84375 548.0625 C 327.832031 547.40625 326.722656 547.070312 325.515625 547.054688 C 323.292969 547.054688 322.316406 548.046875 322.316406 549.261719 C 322.316406 552.59375 329.800781 550.578125 329.800781 555.003906 C 329.800781 556.796875 328.375 558.320312 325.269531 558.320312 C 323.445312 558.320312 321.660156 557.679688 320.757812 556.742188 Z M 320.757812 556.742188 " fill-opacity="1" fill-rule="nonzero"/></g><g clip-path="url(#e94d57778f)"><path fill="#000000" d="M 345.421875 554.96875 L 338.648438 554.96875 L 337.191406 558.21875 L 335.855469 558.21875 L 341.410156 546.070312 L 342.679688 546.070312 L 348.234375 558.21875 L 346.871094 558.21875 Z M 344.949219 553.929688 L 342.03125 547.402344 L 339.121094 553.929688 Z M 344.949219 553.929688 " fill-opacity="1" fill-rule="nonzero"/></g><g clip-path="url(#4e2b150ba9)"><path fill="#000000" d="M 355.464844 546.070312 L 356.746094 546.070312 L 356.746094 557.105469 L 363.535156 557.105469 L 363.535156 558.21875 L 355.4375 558.21875 Z M 355.464844 546.070312 " fill-opacity="1" fill-rule="nonzero"/></g><g clip-path="url(#fafd9f0139)"><path fill="#000000" d="M 369.5625 552.140625 C 369.5625 548.601562 372.269531 545.964844 375.953125 545.964844 C 379.636719 545.964844 382.320312 548.585938 382.320312 552.140625 C 382.320312 555.695312 379.597656 558.320312 375.953125 558.320312 C 372.308594 558.320312 369.5625 555.683594 369.5625 552.140625 Z M 381.035156 552.140625 C 381.039062 551.804688 381.011719 551.472656 380.949219 551.140625 C 380.890625 550.808594 380.796875 550.488281 380.671875 550.175781 C 380.546875 549.859375 380.394531 549.5625 380.210938 549.28125 C 380.027344 549 379.816406 548.738281 379.582031 548.496094 C 379.347656 548.253906 379.089844 548.039062 378.8125 547.851562 C 378.535156 547.660156 378.238281 547.5 377.929688 547.367188 C 377.621094 547.234375 377.300781 547.132812 376.972656 547.066406 C 376.640625 546.996094 376.308594 546.960938 375.972656 546.957031 C 375.636719 546.953125 375.300781 546.984375 374.972656 547.046875 C 374.640625 547.109375 374.320312 547.203125 374.007812 547.332031 C 373.695312 547.457031 373.398438 547.613281 373.117188 547.796875 C 372.835938 547.984375 372.574219 548.195312 372.335938 548.429688 C 372.097656 548.667969 371.882812 548.925781 371.691406 549.203125 C 371.503906 549.480469 371.34375 549.777344 371.214844 550.085938 C 371.085938 550.398438 370.984375 550.71875 370.917969 551.046875 C 370.851562 551.378906 370.816406 551.710938 370.816406 552.046875 C 370.816406 552.382812 370.847656 552.71875 370.910156 553.046875 C 370.976562 553.378906 371.074219 553.699219 371.199219 554.011719 C 371.328125 554.324219 371.488281 554.617188 371.671875 554.898438 C 371.859375 555.179688 372.074219 555.4375 372.308594 555.675781 C 372.546875 555.914062 372.808594 556.128906 373.085938 556.3125 C 373.367188 556.5 373.664062 556.660156 373.972656 556.789062 C 374.285156 556.917969 374.605469 557.011719 374.9375 557.078125 C 375.265625 557.144531 375.601562 557.175781 375.9375 557.175781 C 376.273438 557.1875 376.605469 557.164062 376.933594 557.109375 C 377.265625 557.050781 377.585938 556.964844 377.898438 556.839844 C 378.210938 556.71875 378.507812 556.566406 378.789062 556.382812 C 379.070312 556.203125 379.332031 555.992188 379.570312 555.757812 C 379.808594 555.519531 380.019531 555.265625 380.207031 554.984375 C 380.390625 554.707031 380.546875 554.410156 380.671875 554.101562 C 380.796875 553.789062 380.890625 553.46875 380.953125 553.140625 C 381.011719 552.808594 381.039062 552.476562 381.03125 552.140625 Z M 381.035156 552.140625 " fill-opacity="1" fill-rule="nonzero"/></g><g clip-path="url(#86beab66d9)"><path fill="#000000" d="M 400.558594 546.070312 L 400.558594 558.21875 L 399.5 558.21875 L 391.6875 548.359375 L 391.6875 558.21875 L 390.40625 558.21875 L 390.40625 546.070312 L 391.464844 546.070312 L 399.277344 555.925781 L 399.277344 546.070312 Z M 400.558594 546.070312 " fill-opacity="1" fill-rule="nonzero"/></g><g clip-path="url(#49e6f6f4b4)"><path fill="#000000" d="M 428.167969 558.429688 L 426.488281 556.691406 C 425.960938 557.242188 425.339844 557.664062 424.632812 557.953125 C 423.925781 558.238281 423.1875 558.367188 422.425781 558.339844 C 420.027344 558.339844 418.347656 557.089844 418.347656 555.253906 C 418.347656 553.8125 419.175781 552.753906 421.402344 551.464844 C 420.222656 550.269531 419.875 549.523438 419.875 548.585938 C 419.875 547.042969 421.074219 546 422.949219 546 C 424.664062 546 425.777344 546.90625 425.777344 548.429688 C 425.777344 549.628906 425.046875 550.515625 423.066406 551.625 L 426.398438 555.0625 C 426.796875 554.324219 427.0625 553.546875 427.199219 552.722656 L 428.207031 553.03125 C 428.019531 554.03125 427.660156 554.960938 427.128906 555.828125 L 428.867188 557.617188 Z M 425.742188 555.945312 L 422.078125 552.179688 C 420.136719 553.292969 419.542969 554.054688 419.542969 555.128906 C 419.542969 556.449219 420.742188 557.320312 422.476562 557.320312 C 423.097656 557.34375 423.695312 557.234375 424.269531 556.996094 C 424.84375 556.753906 425.339844 556.402344 425.761719 555.945312 Z M 421.019531 548.566406 C 421.019531 549.261719 421.28125 549.765625 422.394531 550.910156 C 424.144531 549.90625 424.71875 549.3125 424.71875 548.429688 C 424.71875 547.546875 424.074219 546.921875 422.949219 546.921875 C 421.734375 546.898438 421.019531 547.578125 421.019531 548.566406 Z M 421.019531 548.566406 " fill-opacity="1" fill-rule="nonzero"/></g><g clip-path="url(#974a74c6b3)"><path fill="#000000" d="M 444.878906 556.742188 L 445.382812 555.753906 C 446.527344 556.75 447.859375 557.242188 449.378906 557.226562 C 451.65625 557.226562 452.644531 556.273438 452.644531 555.074219 C 452.644531 551.742188 445.160156 553.792969 445.160156 549.296875 C 445.160156 547.507812 446.550781 545.964844 449.636719 545.964844 C 451.003906 545.945312 452.261719 546.304688 453.414062 547.039062 L 452.980469 548.0625 C 451.964844 547.40625 450.855469 547.070312 449.644531 547.054688 C 447.425781 547.054688 446.449219 548.046875 446.449219 549.261719 C 446.449219 552.59375 453.933594 550.578125 453.933594 555.003906 C 453.933594 556.796875 452.507812 558.320312 449.402344 558.320312 C 447.574219 558.320312 445.792969 557.679688 444.878906 556.742188 Z M 444.878906 556.742188 " fill-opacity="1" fill-rule="nonzero"/></g><g clip-path="url(#f831de80d5)"><path fill="#000000" d="M 471.4375 550.230469 C 471.4375 552.820312 469.558594 554.398438 466.472656 554.398438 L 463.207031 554.398438 L 463.207031 558.21875 L 461.925781 558.21875 L 461.925781 546.070312 L 466.472656 546.070312 C 469.558594 546.070312 471.4375 547.644531 471.4375 550.230469 Z M 470.15625 550.230469 C 470.15625 548.289062 468.863281 547.179688 466.4375 547.179688 L 463.207031 547.179688 L 463.207031 553.234375 L 466.4375 553.234375 C 468.863281 553.234375 470.15625 552.140625 470.15625 550.230469 Z M 470.15625 550.230469 " fill-opacity="1" fill-rule="nonzero"/></g><g clip-path="url(#6d5457d9cd)"><path fill="#000000" d="M 486.429688 554.96875 L 479.664062 554.96875 L 478.203125 558.21875 L 476.867188 558.21875 L 482.421875 546.070312 L 483.699219 546.070312 L 489.25 558.21875 L 487.894531 558.21875 Z M 485.960938 553.929688 L 483.046875 547.402344 L 480.128906 553.929688 Z M 485.960938 553.929688 " fill-opacity="1" fill-rule="nonzero"/></g><g clip-path="url(#bac22b32ab)"><path fill="#000000" d="M 297.441406 525.378906 C 297.441406 531.042969 293.566406 534.058594 288.765625 534.058594 L 272.574219 534.058594 L 272.574219 504.898438 L 287.234375 504.898438 C 291.570312 504.898438 294.777344 508.234375 294.777344 512.605469 C 294.777344 515.105469 292.609375 517.769531 290.113281 518.199219 C 294.066406 518.171875 297.441406 521.632812 297.441406 525.378906 Z M 276.53125 505.699219 L 276.53125 517.777344 L 286.152344 517.777344 C 289.652344 517.777344 291.195312 514.980469 291.195312 512.78125 C 291.195312 508.53125 289.320312 505.699219 286 505.699219 Z M 293.542969 525.378906 C 293.542969 522.464844 292.542969 518.550781 287.210938 518.550781 L 276.53125 518.550781 L 276.53125 533.261719 L 286.808594 533.261719 C 291.277344 533.261719 293.527344 529.386719 293.527344 525.386719 Z M 293.542969 525.378906 " fill-opacity="1" fill-rule="nonzero"/></g><path fill="#000000" d="M 323.722656 504.898438 L 323.722656 505.699219 L 309.714844 505.699219 L 309.714844 518.152344 L 318.253906 518.152344 L 318.253906 518.953125 L 309.714844 518.953125 L 309.714844 533.261719 L 324.992188 533.261719 L 324.992188 534.0625 L 305.769531 534.0625 L 305.769531 504.898438 Z M 323.722656 504.898438 " fill-opacity="1" fill-rule="nonzero"/><path fill="#000000" d="M 353.925781 524.589844 L 337.761719 524.589844 L 333.554688 534.0625 L 332.691406 534.0625 L 345.648438 504.898438 L 349.472656 504.898438 L 362.421875 534.0625 L 358.148438 534.0625 Z M 353.550781 523.789062 L 345.84375 506.375 L 338.097656 523.789062 Z M 353.550781 523.789062 " fill-opacity="1" fill-rule="nonzero"/><path fill="#000000" d="M 372.640625 522.585938 C 372.640625 528.578125 375.972656 533.625 380.347656 533.625 L 383.125 533.625 C 389.410156 533.625 393.078125 528.171875 393.078125 522.585938 L 393.078125 504.898438 L 393.878906 504.898438 L 393.878906 522.601562 C 393.878906 529.097656 389.628906 534.433594 383.117188 534.433594 L 380.339844 534.433594 C 372.507812 534.433594 368.679688 529.097656 368.679688 522.601562 L 368.679688 504.898438 L 372.632812 504.898438 Z M 372.640625 522.585938 " fill-opacity="1" fill-rule="nonzero"/><path fill="#000000" d="M 425.445312 505.699219 L 415.28125 505.699219 L 415.28125 534.0625 L 411.324219 534.0625 L 411.324219 505.699219 L 401.160156 505.699219 L 401.160156 504.898438 L 425.457031 504.898438 Z M 425.445312 505.699219 " fill-opacity="1" fill-rule="nonzero"/><path fill="#000000" d="M 433.761719 504.898438 L 437.722656 504.898438 L 437.722656 534.0625 L 433.761719 534.0625 Z M 433.761719 504.898438 " fill-opacity="1" fill-rule="nonzero"/><path fill="#000000" d="M 477.550781 536.667969 C 476.882812 537.753906 474.675781 541.375 470.925781 541.375 C 467.175781 541.375 459.097656 536.292969 452.183594 536.292969 L 454.054688 532.824219 C 452.796875 532.183594 451.65625 531.375 450.640625 530.394531 C 447.769531 527.5625 446.058594 524.644531 446.058594 519.894531 L 446.058594 518.980469 C 446.058594 514.230469 447.769531 511.3125 450.640625 508.480469 C 453.308594 505.902344 457.054688 504.441406 461.175781 504.441406 C 465.292969 504.441406 469.09375 505.902344 471.757812 508.480469 C 474.628906 511.3125 476.339844 514.230469 476.339844 518.980469 L 476.339844 519.894531 C 476.339844 524.644531 474.628906 527.5625 471.757812 530.394531 C 469.09375 532.972656 465.339844 534.433594 461.175781 534.433594 C 458.9375 534.441406 456.785156 534.011719 454.722656 533.140625 L 453.558594 535.308594 C 461.347656 534.628906 472.675781 538.375 477.550781 536.667969 Z M 453.394531 530.769531 C 455.351562 532.683594 458.058594 533.679688 461.179688 533.679688 C 464.296875 533.679688 467.050781 532.683594 469.011719 530.769531 C 471.09375 528.683594 472.207031 523.601562 472.207031 519.9375 L 472.207031 519.019531 C 472.207031 515.355469 471.085938 510.273438 469.011719 508.191406 C 467.050781 506.273438 464.347656 505.273438 461.179688 505.273438 C 458.011719 505.273438 455.351562 506.273438 453.394531 508.191406 C 451.273438 510.273438 450.195312 515.355469 450.195312 519.019531 L 450.195312 519.9375 C 450.195312 523.574219 451.285156 528.671875 453.394531 530.753906 Z M 453.394531 530.769531 " fill-opacity="1" fill-rule="nonzero"/><path fill="#000000" d="M 488.632812 522.585938 C 488.632812 528.578125 491.96875 533.625 496.335938 533.625 L 499.132812 533.625 C 505.421875 533.625 509.089844 528.171875 509.089844 522.585938 L 509.089844 504.898438 L 509.886719 504.898438 L 509.886719 522.601562 C 509.886719 529.097656 505.636719 534.433594 499.125 534.433594 L 496.320312 534.433594 C 488.496094 534.433594 484.660156 529.097656 484.660156 522.601562 L 484.660156 504.898438 L 488.621094 504.898438 Z M 488.632812 522.585938 " fill-opacity="1" fill-rule="nonzero"/><g clip-path="url(#1eb82b8bd1)"><path fill="#000000" d="M 536.15625 504.898438 L 536.15625 505.699219 L 522.152344 505.699219 L 522.152344 518.152344 L 530.6875 518.152344 L 530.6875 518.953125 L 522.152344 518.953125 L 522.152344 533.261719 L 537.425781 533.261719 L 537.425781 534.0625 L 518.207031 534.0625 L 518.207031 504.898438 Z M 536.15625 504.898438 " fill-opacity="1" fill-rule="nonzero"/></g><path fill="#000000" d="M 410.992188 369.796875 C 410.925781 369.679688 409.246094 366.632812 408.304688 365.332031 C 405.316406 361.25 401.265625 357.960938 397.230469 354.632812 C 395.367188 353.078125 393.292969 351.675781 391.636719 349.941406 C 390 348.21875 388.539062 346.355469 387.261719 344.347656 C 386 342.40625 385.117188 341.09375 383.472656 338.757812 C 381.824219 336.417969 379.898438 334.515625 379.75 333.964844 C 380.652344 337.753906 383.433594 343.90625 385.578125 347.339844 C 388.652344 352.242188 393.324219 355.855469 397.796875 359.820312 C 401.996094 363.554688 406.316406 367.730469 408.398438 372.640625 C 409.640625 375.59375 410.828125 381.117188 410.851562 381.605469 C 410.855469 381.78125 410.871094 381.957031 410.894531 382.128906 C 411.117188 381.570312 411.328125 381 411.53125 380.417969 C 412.144531 378.683594 412.851562 375.503906 412.851562 375.503906 C 412.636719 373.746094 411.65625 371.160156 410.992188 369.796875 Z M 410.992188 369.796875 " fill-opacity="1" fill-rule="nonzero"/><g clip-path="url(#386e40375a)"><path fill="#000000" d="M 452.9375 377.425781 C 452.40625 377.867188 448.597656 381.257812 447.34375 382.21875 C 446.089844 383.183594 443.820312 384.578125 442.792969 385.277344 C 441.140625 386.417969 439.5625 387.605469 437.90625 388.726562 C 434.722656 390.863281 431.34375 392.617188 427.769531 393.992188 C 422.597656 396.074219 416.832031 397.960938 412.78125 401.421875 C 414.867188 398.109375 420.277344 396.988281 422.488281 393.792969 C 422.511719 393.753906 423.75 392.054688 423.75 391.988281 C 424.070312 391.363281 424.441406 390.769531 424.863281 390.207031 L 424.914062 390.144531 C 428.195312 385.878906 434.714844 383.289062 440.578125 380.957031 C 442.253906 380.300781 443.839844 379.679688 445.292969 379.015625 C 453.28125 375.503906 456.824219 368.207031 456.257812 361.949219 C 456.089844 360.222656 456.535156 356.472656 456.65625 355.023438 C 456.777344 353.574219 457.335938 350.332031 457.367188 350.125 C 457.207031 350.332031 453.695312 354.917969 451.035156 357.1875 C 448.292969 359.496094 443.410156 361.519531 439.050781 362.25 C 440.652344 360.945312 442.351562 359.789062 444.148438 358.777344 C 447.777344 356.601562 455.171875 351.1875 456.457031 347.007812 C 457.507812 343.597656 458 342.085938 457.507812 337.695312 C 457.257812 335.441406 456.910156 329.792969 456.835938 328.6875 C 456.773438 327.703125 456.109375 321.894531 455.980469 320.695312 C 455.96875 320.671875 455.949219 320.660156 455.921875 320.660156 C 455.894531 320.660156 455.878906 320.671875 455.867188 320.695312 L 450.210938 334.148438 C 446.105469 343.855469 441.125 346.035156 436.308594 348.128906 C 435.082031 348.65625 433.8125 349.222656 432.605469 349.894531 C 428.628906 352.105469 424.988281 354.769531 421.683594 357.886719 C 421.925781 355.75 430.695312 344.605469 434.863281 341.320312 C 438.492188 338.460938 441.941406 335.777344 443.832031 334.128906 C 450.070312 328.75 452.222656 316.511719 450.625 308.242188 C 449.171875 300.679688 437.6875 276.152344 433.242188 272.417969 L 432.285156 271.621094 L 432.34375 272.746094 C 433.691406 294.347656 426.222656 305.003906 420.152344 310.054688 C 420.058594 310.128906 419.960938 310.195312 419.855469 310.253906 C 419.457031 310.492188 418.972656 310.808594 418.535156 310.492188 C 418.382812 310.367188 418.285156 310.207031 418.238281 310.015625 C 417.851562 308.632812 417.894531 307.265625 418.371094 305.914062 C 419.441406 302.851562 421.226562 299.945312 423.074219 296.9375 C 425.984375 292.25 428.984375 287.386719 429.46875 281.453125 C 430.003906 274.921875 427.871094 269.492188 422.816406 264.371094 C 420.710938 262.238281 417.964844 260.527344 415.320312 258.882812 C 412.101562 256.886719 408.792969 254.835938 406.683594 252.054688 L 406.363281 251.613281 L 405.886719 251.945312 C 405.835938 251.972656 405.363281 252.316406 405.328125 252.34375 C 398.292969 257.503906 394.46875 263.886719 394.046875 271.308594 C 393.1875 285.6875 405.230469 300.707031 412.023438 307.929688 C 413.171875 309.152344 414.109375 310.519531 414.832031 312.039062 C 415.554688 313.554688 416.027344 315.144531 416.253906 316.808594 C 416.320312 317.359375 416.386719 317.902344 416.449219 318.449219 C 415.027344 315.613281 412.746094 313.316406 409.65625 310.210938 L 408.195312 308.699219 C 399.492188 299.871094 387.820312 285.152344 390.039062 271.945312 L 390.605469 267.953125 C 390.613281 267.863281 390.574219 267.804688 390.488281 267.773438 C 390.40625 267.746094 390.335938 267.765625 390.285156 267.839844 L 387.570312 271.761719 C 384.375 277.355469 382.273438 284.585938 381.933594 291.738281 C 381.527344 298.730469 382.648438 305.464844 385.292969 311.953125 C 388.679688 320.066406 393.683594 328.90625 401.863281 334.371094 C 408.550781 338.84375 416.644531 353.144531 416.203125 356.140625 C 412.714844 351.5 408.890625 347.15625 404.726562 343.105469 C 404.160156 342.574219 403.601562 342.046875 403.066406 341.507812 C 400.027344 338.640625 397.132812 335.433594 394.34375 332.339844 C 391.148438 328.820312 387.847656 325.148438 384.359375 322.035156 L 373.695312 310.898438 L 373.558594 312.609375 C 373.21875 315.363281 374.101562 316.929688 373.601562 320.070312 C 373.484375 320.355469 373.320312 322.773438 373.304688 322.929688 C 373.1875 323.585938 372.714844 327.882812 372.601562 328.558594 C 371.449219 333.160156 371.929688 338.601562 371.980469 344.238281 C 371.542969 348.289062 371.203125 352.316406 370.96875 355.339844 C 370.398438 357.738281 369.492188 360.003906 368.242188 362.128906 C 364.992188 367.617188 361.691406 371.632812 370.210938 376.667969 C 371.648438 377.511719 373.109375 378.265625 374.511719 379.015625 C 379.746094 381.730469 384.3125 384.109375 385.0625 389.472656 C 380.957031 386.472656 373.476562 382.28125 366.863281 381.375 C 361.804688 380.671875 358.074219 382.027344 356.054688 385.28125 C 355.351562 386.390625 354.816406 387.746094 353.996094 391.039062 C 353.878906 391.589844 353.644531 392.832031 353.523438 393.800781 C 354 393.65625 354.402344 393.390625 354.71875 393.003906 C 355.101562 392.453125 356.601562 391.882812 357.238281 391.699219 C 358.785156 391.246094 360.5625 391.519531 362.03125 392.054688 C 366.027344 393.527344 368.113281 395.25 370.636719 397.375 C 373.15625 399.496094 373.628906 400.28125 374.949219 401.839844 C 375.40625 402.40625 375.863281 402.949219 376.304688 403.515625 C 376.550781 403.820312 376.796875 404.121094 377.042969 404.4375 C 377.078125 404.492188 377.117188 404.542969 377.160156 404.59375 L 377.203125 404.660156 C 378.152344 405.859375 379.085938 407.113281 380.027344 408.316406 C 383.460938 412.660156 385.355469 417.636719 388.714844 422.007812 C 390.613281 424.449219 392.21875 426.628906 395.289062 428.140625 C 395.589844 428.4375 395.335938 429.539062 394.714844 430.335938 C 390.320312 428.675781 388.347656 427.429688 386.726562 423.667969 C 385.8125 421.542969 384.597656 418.847656 383.257812 416.875 C 381.742188 414.65625 381.003906 413.113281 378.53125 410.238281 C 376.054688 407.359375 372.375 405.542969 370.242188 405.183594 C 368.113281 404.824219 365.625 404.90625 363.648438 405.707031 C 361.117188 406.738281 357.875 408.253906 355.394531 412.640625 C 353.484375 416.03125 352.902344 418.449219 351.324219 420.59375 C 351.277344 420.664062 351.601562 420.730469 352.0625 420.59375 C 355.085938 419.703125 356.972656 419.796875 358.457031 420.570312 C 360.585938 421.679688 364.226562 426.644531 365.921875 430.464844 C 366.789062 432.4375 367.414062 434.527344 368.519531 436.6875 C 368.664062 436.96875 368.820312 437.257812 368.988281 437.550781 C 369.8125 439 370.816406 440.308594 372 441.480469 C 372.289062 441.777344 372.609375 442.066406 372.941406 442.367188 C 373.144531 442.546875 373.339844 442.722656 373.566406 442.902344 C 376.257812 445.125 377.875 446.386719 379.308594 447.1875 C 379.769531 447.449219 380.246094 447.679688 380.738281 447.875 C 381.648438 448.21875 382.582031 448.484375 383.535156 448.675781 C 387.09375 449.472656 389.082031 449.335938 390.515625 451 C 391.007812 451.722656 391.285156 452.523438 391.34375 453.398438 C 391.34375 454.074219 391.34375 454.402344 391.316406 454.996094 C 391.292969 455.515625 391.199219 460.078125 391.375 462.8125 C 391.722656 467.03125 392.472656 471.296875 394.074219 475.359375 C 395.652344 479.617188 398.027344 483.375 401.191406 486.632812 L 402.074219 486.179688 C 401.082031 484.347656 400.234375 482.453125 399.53125 480.488281 C 398.898438 478.585938 398.394531 476.644531 398.023438 474.671875 C 397.398438 470.757812 397.230469 466.824219 397.519531 462.871094 C 397.746094 459.035156 397.496094 460.566406 398.742188 452.992188 C 399.988281 445.417969 410.820312 446.128906 415.972656 447.449219 C 419.363281 448.367188 422.8125 448.808594 426.324219 448.765625 C 428.582031 448.699219 430.710938 448.144531 432.714844 447.097656 C 435.074219 445.832031 438.949219 442.269531 440.519531 439.730469 C 442.621094 436.464844 444.171875 432.957031 445.171875 429.203125 C 446.507812 424.46875 446.820312 412.089844 446.820312 412.089844 C 446.820312 412.089844 445.570312 414.121094 443.167969 417.210938 C 440.761719 420.304688 438.230469 422.671875 433.296875 425.960938 C 428.363281 429.246094 423.167969 427.160156 413.300781 428.984375 C 412.246094 429.164062 411.21875 429.453125 410.222656 429.847656 C 409.226562 430.242188 408.28125 430.734375 407.386719 431.324219 C 406.492188 431.914062 405.671875 432.589844 404.917969 433.351562 C 404.164062 434.113281 403.496094 434.945312 402.914062 435.84375 C 402.371094 435.628906 402.089844 435.464844 402.113281 435.382812 C 402.25 434.597656 402.429688 433.820312 402.648438 433.054688 C 403.019531 431.976562 403.550781 430.984375 404.25 430.082031 C 405.277344 428.929688 407.445312 428.320312 409.199219 427.6875 C 410.953125 427.050781 414.390625 425.210938 415.289062 424.449219 C 422.105469 418.648438 427.886719 417.292969 436.277344 414.019531 C 443.59375 411.191406 448.78125 407.257812 450.875 401.3125 C 451.707031 398.972656 452.34375 394.46875 452.394531 391.921875 C 452.453125 388.554688 453.648438 384.875 455.492188 380.808594 C 455.574219 380.65625 455.777344 380.085938 456.113281 379.3125 C 456.449219 378.539062 458.726562 373.289062 458.726562 373.289062 C 458.726562 373.289062 453.46875 376.988281 452.9375 377.425781 Z M 419.96875 313.855469 C 420.148438 314.589844 420.3125 315.320312 420.476562 316.066406 C 422.671875 313.621094 425.296875 311.453125 427.578125 309.054688 C 430.710938 305.761719 433.539062 302.039062 434.722656 297.871094 C 435.945312 293.546875 435.871094 289.878906 435.351562 285.484375 C 435.136719 283.59375 434.953125 282.363281 434.578125 280.292969 C 434.378906 279.25 434.117188 277.664062 433.9375 276.9375 C 433.859375 276.59375 433.792969 276.167969 433.769531 276.054688 C 433.710938 275.777344 433.730469 275.445312 433.820312 275.507812 C 433.914062 275.566406 434.128906 275.632812 434.382812 276.613281 C 434.660156 277.710938 434.847656 278.609375 434.972656 279.222656 C 435.390625 281.308594 435.832031 283.347656 436.066406 285.382812 C 436.566406 289.777344 437.191406 293.984375 435.847656 298.300781 C 434.613281 302.234375 431.785156 305.492188 428.847656 308.660156 C 426.40625 311.285156 423.554688 313.640625 421.144531 316.285156 C 420.996094 316.484375 420.894531 316.703125 420.832031 316.941406 C 420.832031 317.382812 420.90625 318 421.5625 317.882812 C 421.828125 317.847656 422.082031 317.761719 422.316406 317.628906 C 422.585938 317.5 427.265625 315.046875 428.660156 314.347656 C 432.492188 312.394531 435.492188 310.113281 437.472656 306.636719 C 440.746094 300.929688 442.265625 293.855469 440.769531 287.464844 C 440.769531 287.464844 441.441406 288.445312 441.703125 292.257812 C 441.859375 294.527344 440.976562 301.644531 438.566406 306.0625 C 437.695312 307.71875 436.601562 309.214844 435.285156 310.546875 C 433.972656 311.882812 432.492188 312.996094 430.847656 313.890625 C 429.160156 314.816406 427.363281 315.640625 425.652344 316.546875 C 425.441406 316.671875 425.222656 316.785156 424.996094 316.890625 C 424.6875 317.0625 424.40625 317.238281 424.109375 317.410156 C 423.382812 317.847656 422.738281 318.382812 422.175781 319.019531 C 421.707031 319.640625 421.492188 320.339844 421.535156 321.121094 C 421.535156 322.148438 421.679688 325.136719 422.082031 325.609375 C 423.394531 326.699219 425.730469 324.683594 427.273438 323.433594 C 428.820312 322.183594 433.265625 318.574219 435.804688 316.066406 C 439.226562 312.625 441.222656 308.875 442.59375 304.441406 C 443.324219 302.019531 443.394531 297.605469 443.210938 295.945312 C 443.121094 295.234375 443.0625 294.347656 442.933594 293.640625 C 443.257812 294.667969 443.488281 295.71875 443.628906 296.785156 C 443.859375 298.53125 444.027344 301.523438 443.371094 303.9375 C 442.449219 307.300781 442.113281 309.738281 437.554688 315.011719 C 433.113281 320.140625 424.191406 326.542969 423.441406 328.144531 C 422.203125 330.777344 422.902344 334.140625 423.003906 336.636719 C 423.066406 338.320312 423.359375 339.199219 423.359375 340.875 C 426.871094 333.925781 434.625 329.78125 439.632812 323.671875 C 444.429688 317.835938 445.578125 314.738281 446.214844 308.933594 C 446.507812 306.203125 446.214844 302.824219 445.882812 300.386719 C 446.628906 303.101562 446.9375 305.863281 446.804688 308.675781 C 446.523438 312.933594 444.699219 319.0625 441.148438 322.886719 C 428.007812 336.996094 423.171875 343.960938 423.082031 343.992188 C 422.996094 344.027344 422.878906 343.992188 422.867188 343.785156 C 422.855469 343.578125 421.613281 332.15625 421.613281 328.707031 C 421.613281 324.78125 419.746094 314.042969 419.746094 314.042969 Z M 415.453125 333.832031 C 415.054688 332.632812 413.144531 327.988281 411.332031 325.804688 C 409.734375 323.886719 407.976562 321.773438 406.027344 320.234375 C 402.394531 317.367188 397.261719 314.667969 396.097656 309.769531 C 396.042969 309.535156 396.765625 311.023438 396.898438 311.222656 C 398.464844 313.675781 399.136719 314.359375 401.292969 315.976562 C 403.222656 317.414062 405.222656 318.738281 407.082031 320.265625 C 409.03125 321.820312 410.785156 323.574219 412.335938 325.53125 C 413.859375 327.527344 415.035156 329.71875 416.25 331.890625 C 416.222656 331.105469 416.242188 330.320312 416.300781 329.535156 C 416.4375 326.488281 416.511719 325.058594 416.511719 324.320312 C 416.511719 324.015625 416.976562 324.25 416.976562 324.25 C 416.976562 324.25 416.851562 325.191406 416.816406 329.339844 C 416.816406 330.886719 416.765625 333.925781 417.167969 335.820312 C 418.53125 342.28125 418.316406 344.632812 418.070312 347.007812 C 418 347.695312 417.539062 348.078125 417.640625 347.320312 C 417.925781 345.105469 417.679688 343.195312 417.316406 341.003906 C 417.113281 339.820312 415.851562 335.011719 415.453125 333.828125 Z M 403.214844 440.582031 C 404.390625 440.617188 405.488281 440.34375 406.507812 439.757812 C 409.042969 438.242188 411.796875 436.816406 414.871094 436.195312 C 417.941406 435.570312 420.988281 435.394531 424.03125 435.089844 C 427.074219 434.78125 430.070312 434.328125 432.761719 433.222656 C 435.4375 432.027344 437.730469 430.320312 439.644531 428.101562 C 441.546875 426.015625 443.179688 422.976562 444.597656 420.445312 C 443.488281 423.332031 441.964844 425.980469 440.027344 428.394531 C 438.144531 430.742188 435.847656 432.558594 433.128906 433.84375 C 430.332031 435.148438 427.195312 435.601562 424.152344 435.910156 C 421.105469 436.222656 418.046875 436.421875 415.136719 437.089844 C 412.199219 437.660156 409.546875 438.96875 407.027344 440.457031 C 405.832031 441.167969 404 441.914062 402.835938 442.601562 Z M 396.953125 421.910156 C 396.957031 421.921875 396.957031 421.9375 396.953125 421.949219 C 396.902344 422.460938 396.183594 423.617188 396.179688 423.148438 C 396.179688 422.480469 396.179688 421.808594 396.207031 421.152344 C 395.179688 419.898438 394.269531 418.570312 393.476562 417.15625 C 393.425781 417.070312 393.386719 416.996094 393.335938 416.914062 C 390.789062 412.550781 388.941406 407.945312 386.367188 403.59375 C 383.460938 398.636719 379.597656 393.40625 374.636719 389.789062 C 372.332031 388.097656 368.179688 386.246094 365.050781 386.296875 C 362.519531 386.332031 361.007812 388.175781 360.011719 388.539062 C 360.0625 388.429688 360.867188 386.636719 362.21875 385.769531 C 364.011719 384.625 366.09375 384.761719 368.140625 385.25 C 374.007812 386.6875 378.070312 390.992188 381.59375 395.085938 C 385.902344 400.074219 388.871094 405.558594 391.527344 411.308594 C 392.65625 413.703125 394.132812 417.082031 396.261719 419.722656 C 396.433594 416.699219 396.96875 413.738281 397.859375 410.839844 C 398.105469 410.078125 398.359375 409.316406 398.636719 408.566406 C 397.4375 401.601562 394.734375 390.082031 389.402344 384.449219 C 385.3125 380.15625 379.742188 377.921875 375.023438 374.316406 C 373.144531 372.894531 371.425781 371.621094 370.628906 369.519531 C 370.34375 368.675781 370.296875 367.816406 370.484375 366.945312 C 370.722656 366.082031 371.070312 365.269531 371.535156 364.503906 C 371.285156 365.921875 371.257812 368.453125 372.101562 369.785156 C 372.925781 371.0625 373.941406 372.160156 375.152344 373.082031 C 377.25 374.597656 379.425781 375.988281 381.679688 377.253906 C 386.386719 380.019531 390.265625 383.179688 393.152344 387.460938 C 396.660156 392.695312 398.636719 402.152344 399.414062 406.515625 C 401.011719 402.457031 403.011719 398.527344 404.976562 394.671875 C 404.347656 392.578125 403.050781 388.597656 401.449219 385.519531 C 400.804688 384.28125 398.613281 380.546875 397.554688 378.300781 C 396.496094 376.054688 393.851562 373.144531 393.082031 372.191406 C 392.316406 371.234375 390.503906 368.953125 388.71875 367.59375 C 387.578125 366.734375 381.40625 361.921875 381.40625 361.921875 C 381.191406 361.523438 386.847656 364.824219 390.332031 368.058594 C 392.207031 369.796875 396.722656 374.1875 397.957031 376.484375 C 402.273438 384.5625 405.148438 388.113281 406.371094 389.453125 C 406.503906 389.585938 406.652344 389.707031 406.8125 389.8125 C 406.972656 389.925781 407.152344 389.980469 407.347656 389.980469 C 408.105469 388.445312 408.839844 386.945312 409.527344 385.429688 C 409.71875 381.570312 409.097656 375.5 405.976562 370.675781 C 402.539062 365.359375 397.519531 361.125 392.554688 356.816406 C 388.59375 353.363281 383.804688 349.699219 382.933594 344.785156 C 381.609375 337.367188 376.140625 331.890625 375.78125 329.921875 C 375.421875 327.949219 375.78125 325.609375 375.863281 323.195312 C 375.90625 323.996094 376.308594 324.042969 376.855469 325.59375 C 377.582031 327.648438 384.066406 337.476562 384.894531 339.105469 C 386.085938 341.421875 387.457031 343.628906 389.007812 345.722656 C 390.425781 347.820312 392.101562 349.683594 394.035156 351.316406 C 396.144531 353.003906 398.265625 354.675781 400.308594 356.414062 C 403.90625 359.492188 407.308594 362.464844 409.757812 366.320312 C 410.367188 367.257812 412.332031 370.46875 412.851562 370.996094 C 413.027344 371.097656 413.207031 371.179688 413.394531 371.246094 C 413.597656 369.148438 413.683594 367.207031 413.796875 365.609375 L 413.90625 365.609375 C 414.46875 365.609375 414.449219 369.46875 414.421875 369.949219 C 414.164062 374.144531 413.894531 377.085938 412.261719 381.496094 C 407.367188 394.640625 397.160156 407.023438 396.953125 421.914062 Z M 396.953125 421.910156 " fill-opacity="1" fill-rule="nonzero"/></g></svg>